# xmcd
#
# Track frame offsets:
# 150
# 5210
# 22615
# 46540
# 69655
# 97707
# 114435
# 131230
# 147460
# 169270
#
# Disc length: 2475 seconds
#
#
# Revision: 0
# Processed by: cddbd v1.5.1PL0 Copyright (c) Steve Scherf et al.
# Submitted via: FreeRIP 2.91 
#
DISCID=7d09a90a
DTITLE=Anomanes - Pronunciation
DYEAR=1995
DGENRE=Death Metal
TTITLE0=Pronunciation
TTITLE1=Power Wish
TTITLE2=Raiva
TTITLE3=Better World
TTITLE4=Coward
TTITLE5=Dead Life
TTITLE6=Self Destruction
TTITLE7=Dying Earth
TTITLE8=Agony
TTITLE9=Pride
EXTD=
EXTT0=
EXTT1=
EXTT2=
EXTT3=
EXTT4=
EXTT5=
EXTT6=
EXTT7=
EXTT8=
EXTT9=
PLAYORDER=
